<?xml version="1.0" standalone="no"?>
<!DOCTYPE svg PUBLIC "-//W3C//DTD SVG 20010904//EN"
 "http://www.w3.org/TR/2001/REC-SVG-20010904/DTD/svg10.dtd">
<svg version="1.0" xmlns="http://www.w3.org/2000/svg"
 width="2050.000000pt" height="2050.000000pt" viewBox="0 0 2050.000000 2050.000000"
 preserveAspectRatio="xMidYMid meet">
<metadata>
Created by potrace 1.14, written by Peter Selinger 2001-2017
</metadata>
<g transform="translate(0.000000,2050.000000) scale(0.100000,-0.100000)"
fill="#000000" stroke="none">
<path d="M18157 20494 c-1 -1 -45 -4 -97 -8 -52 -4 -124 -11 -160 -16 -36 -5
-90 -11 -120 -15 -60 -7 -60 -7 -205 -30 -55 -9 -116 -18 -135 -21 -19 -3 -66
-11 -105 -19 -38 -7 -88 -16 -110 -20 -22 -3 -56 -10 -75 -15 -19 -5 -51 -12
-70 -15 -42 -7 -168 -36 -400 -90 -122 -29 -333 -87 -530 -146 -36 -11 -72
-22 -80 -24 -21 -5 -235 -77 -355 -119 -255 -88 -592 -222 -820 -326 -101 -46
-532 -261 -615 -306 -237 -130 -489 -283 -709 -432 -151 -102 -370 -262 -467
-341 -18 -14 -47 -37 -65 -51 -27 -21 -134 -109 -175 -145 -7 -5 -38 -32 -70
-60 -116 -101 -203 -183 -384 -365 -219 -219 -254 -258 -419 -455 -107 -127
-173 -211 -328 -420 -47 -63 -253 -375 -310 -470 -176 -291 -344 -621 -476
-935 -24 -58 -48 -116 -52 -129 -7 -22 -10 -19 -32 35 -165 391 -394 839 -599
1170 -253 410 -549 805 -874 1164 -124 137 -367 380 -505 505 -60 54 -112 102
-115 105 -5 5 -173 145 -204 170 -11 8 -35 29 -55 46 -81 70 -378 284 -551
399 -802 531 -1647 901 -2632 1151 -10 2 -26 6 -35 8 -10 2 -48 11 -84 20 -37
8 -78 17 -90 20 -13 2 -69 14 -124 26 -55 12 -113 23 -130 25 -16 3 -52 9 -80
15 -27 6 -66 12 -85 15 -19 3 -44 6 -55 9 -19 3 -83 14 -135 21 -22 3 -95 13
-235 30 -22 3 -69 8 -105 11 -36 3 -81 8 -100 10 -19 3 -132 7 -250 9 -271 6
-361 -11 -510 -92 -197 -107 -346 -311 -376 -513 -3 -19 -7 -42 -10 -50 -3 -8
-5 -62 -4 -120 1 -107 3 -147 15 -325 3 -55 8 -122 10 -150 3 -57 14 -174 20
-225 2 -19 7 -62 10 -95 4 -33 8 -71 10 -85 2 -14 7 -52 11 -85 3 -33 7 -67 9
-75 3 -18 15 -95 20 -130 5 -31 36 -218 41 -245 2 -11 7 -36 10 -55 4 -19 8
-44 11 -55 2 -11 8 -40 13 -65 218 -1088 673 -2127 1300 -2970 93 -125 276
-353 335 -420 422 -468 675 -704 1175 -1093 66 -52 253 -183 390 -274 138 -93
495 -313 505 -313 2 0 34 -17 72 -38 112 -64 192 -106 308 -165 122 -61 384
-187 390 -187 3 0 34 -13 69 -30 36 -16 94 -41 128 -55 35 -15 77 -32 93 -40
17 -7 84 -35 150 -60 590 -231 1162 -401 1767 -526 176 -36 161 -25 143 -109
-3 -14 -7 -41 -9 -60 -2 -19 -11 -75 -20 -125 -8 -49 -18 -110 -21 -135 -3
-25 -8 -56 -10 -70 -2 -14 -7 -45 -10 -70 -3 -25 -7 -56 -10 -70 -2 -14 -7
-45 -10 -70 -5 -45 -13 -104 -20 -150 -4 -25 -23 -176 -31 -240 -2 -19 -9 -75
-14 -125 -16 -136 -19 -155 -25 -225 -4 -36 -8 -76 -10 -90 -2 -14 -7 -61 -10
-105 -4 -44 -9 -92 -11 -108 -2 -15 -6 -55 -9 -90 -2 -34 -7 -87 -10 -117 -7
-75 -14 -159 -21 -255 -6 -86 -8 -113 -18 -275 -4 -58 -9 -125 -11 -150 -2
-25 -7 -110 -10 -190 -4 -80 -8 -167 -10 -195 -2 -27 -6 -142 -10 -255 -4
-113 -8 -241 -10 -285 -1 -44 -3 -105 -4 -136 l-1 -57 -47 -7 c-73 -10 -337
-79 -453 -118 -336 -111 -648 -262 -935 -452 -108 -71 -255 -178 -305 -221
-14 -12 -61 -52 -105 -89 -105 -89 -331 -317 -426 -430 -109 -130 -230 -293
-306 -414 -37 -58 -79 -126 -95 -151 -16 -25 -68 -125 -116 -223 l-87 -177
-45 5 c-149 19 -230 23 -445 20 -132 -2 -256 -6 -275 -10 -19 -3 -91 -15 -160
-26 -381 -62 -757 -205 -1093 -417 -98 -61 -266 -183 -322 -234 -16 -14 -41
-36 -55 -48 -40 -34 -171 -163 -225 -221 -268 -289 -508 -692 -625 -1054 -12
-38 -24 -71 -25 -73 -1 -1 -46 21 -99 49 -150 79 -309 134 -482 165 -74 14
-146 18 -289 18 -165 -1 -206 -4 -316 -27 -340 -71 -613 -219 -854 -463 -226
-228 -376 -509 -447 -837 -30 -139 -33 -483 -5 -622 68 -341 218 -626 457
-866 253 -256 581 -421 935 -473 127 -18 352 -18 475 0 360 54 687 219 936
473 29 30 55 53 57 50 2 -2 27 -38 57 -79 322 -452 796 -821 1316 -1028 517
-206 1077 -259 1652 -157 235 41 525 140 764 261 285 143 493 291 757 541 30
28 49 39 60 34 9 -3 75 -36 146 -72 172 -87 515 -224 608 -243 12 -3 84 -21
161 -40 135 -35 352 -77 471 -91 33 -4 71 -9 85 -11 194 -24 748 -24 840 1 8
2 42 6 75 10 33 3 71 8 85 10 14 3 36 6 50 9 85 14 116 20 215 42 269 58 552
154 815 275 47 22 92 44 100 49 8 5 44 23 79 40 l64 31 66 -64 c230 -224 497
-409 788 -547 225 -107 523 -204 728 -236 28 -4 52 -9 55 -9 3 -1 32 -5 65 -9
33 -5 69 -10 80 -12 114 -22 575 -22 680 -1 11 3 47 8 80 12 51 6 215 37 265
49 235 60 389 114 600 213 417 195 848 558 1121 943 l60 85 83 -80 c80 -77
205 -175 284 -222 187 -113 421 -196 647 -229 66 -10 345 -11 415 -1 200 27
344 70 525 157 101 49 247 136 265 159 3 3 23 19 45 36 64 47 226 213 286 295
154 207 260 448 303 685 3 17 8 40 10 52 9 42 19 190 19 273 0 652 -395 1249
-993 1502 -118 50 -190 73 -300 97 -133 28 -167 32 -320 35 -285 7 -559 -58
-808 -191 -46 -24 -85 -43 -86 -41 -2 2 -15 39 -31 83 -57 163 -103 266 -211
475 -38 74 -142 233 -218 335 -343 458 -811 809 -1341 1008 -90 33 -247 82
-315 98 -25 6 -54 13 -65 15 -79 18 -192 38 -280 49 -27 4 -61 9 -75 11 -14 3
-124 7 -245 8 -200 3 -267 0 -435 -19 l-55 -6 -74 151 c-487 997 -1350 1725
-2423 2045 -48 14 -95 28 -105 30 -10 2 -65 15 -123 29 -58 13 -129 28 -157
32 -45 5 -53 10 -54 28 -2 66 14 534 26 746 10 173 16 277 20 340 3 36 7 99
10 140 7 111 22 298 30 380 2 25 7 74 10 110 3 36 8 86 10 113 9 89 15 142 25
247 10 102 14 130 24 215 3 22 8 65 11 95 2 30 7 64 9 75 2 11 7 49 11 85 4
36 9 74 11 84 2 11 6 42 9 70 6 48 11 87 20 146 13 83 25 161 30 200 3 25 10
70 15 100 5 30 12 71 14 90 8 59 55 333 59 336 3 3 66 10 182 19 82 6 158 15
315 35 47 6 101 14 120 16 46 7 258 42 290 49 14 3 39 8 55 11 143 25 467 100
625 144 41 11 82 22 91 25 198 46 806 260 1024 360 17 8 48 21 70 30 137 54
530 248 718 354 26 15 130 75 235 136 415 242 939 638 1322 1000 260 246 566
578 749 814 468 603 837 1231 1122 1909 5 12 13 32 19 45 96 227 265 700 339
952 98 333 194 728 252 1030 5 28 11 61 14 75 3 14 8 41 11 60 4 19 8 44 11
55 2 11 6 36 9 55 3 19 14 85 24 145 19 106 28 167 36 230 7 63 16 131 19 147
20 104 26 308 11 387 -21 119 -100 281 -174 356 -156 161 -297 231 -506 253
-42 5 -77 7 -79 6z"/>
<path d="M4380 8755 c-240 -50 -424 -195 -520 -408 -43 -98 -60 -180 -61 -297
-1 -320 218 -604 530 -686 175 -46 387 -17 540 73 66 39 178 140 223 203 61
85 111 212 124 315 7 60 7 171 0 205 -3 14 -8 36 -11 50 -3 14 -7 35 -9 46 -8
43 -74 170 -119 230 -97 131 -282 245 -438 270 -67 11 -205 10 -259 -1z"/>
<path d="M15295 8509 c-27 -4 -70 -12 -95 -19 -25 -8 -50 -14 -57 -16 -22 -4
-138 -66 -173 -92 -153 -115 -248 -265 -285 -447 -13 -64 -13 -194 0 -262 42
-222 182 -408 382 -508 112 -56 180 -70 328 -69 113 0 141 4 210 27 227 76
408 265 470 492 19 69 27 241 14 306 -16 85 -19 94 -28 114 -5 11 -15 35 -22
54 -37 97 -154 237 -259 307 -136 91 -323 135 -485 113z"/>
<path d="M16886 7780 c-171 -66 -227 -296 -106 -434 70 -79 191 -111 295 -78
66 21 145 99 168 164 33 98 4 224 -67 290 -78 72 -193 95 -290 58z"/>
<path d="M3250 6749 c-150 -44 -234 -227 -170 -371 101 -229 431 -213 509 25
40 122 -18 266 -130 323 -57 28 -153 39 -209 23z"/>
<path d="M16952 6479 c-140 -18 -235 -126 -236 -269 -1 -242 293 -364 462
-192 59 60 77 105 76 192 0 79 -19 131 -67 186 -53 61 -148 94 -235 83z"/>
</g>
</svg>
